<mxfile host="app.diagrams.net" modified="2025-10-03T12:10:00.000Z" agent="TraeAI-GPT5" version="20.6.3" type="device">
  <diagram id="frontend-flow" name="Frontend Flow">
    <mxGraphModel dx="1612" dy="978" grid="1" gridSize="10" guides="1" tooltips="1" connect="1" arrows="1" fold="1" page="1" pageScale="1" pageWidth="1920" pageHeight="1080" math="0" shadow="0">
      <root>
        <mxCell id="0"/>
        <mxCell id="1" parent="0"/>

        <!-- Actors -->
        <mxCell id="user" value="Usuário" style="shape=ellipse;fillColor=#dae8fc;strokeColor=#6c8ebf;fontSize=12" vertex="1" parent="1">
          <mxGeometry x="40" y="40" width="120" height="50" as="geometry"/>
        </mxCell>
        <mxCell id="app" value="Aplicação Angular" style="shape=rectangle;rounded=1;fillColor=#fff2cc;strokeColor=#d6b656;fontSize=12" vertex="1" parent="1">
          <mxGeometry x="200" y="30" width="220" height="60" as="geometry"/>
        </mxCell>

        <!-- Components -->
        <mxCell id="queriesPage" value="QueriesPageComponent\n/consultas" style="shape=rectangle;rounded=1;fillColor=#ffffff;strokeColor=#000000;fontSize=12" vertex="1" parent="1">
          <mxGeometry x="200" y="120" width="240" height="80" as="geometry"/>
        </mxCell>
        <mxCell id="shortenForm" value="ShortenFormComponent\nFormulário de encurtar" style="shape=rectangle;rounded=1;fillColor=#ffffff;strokeColor=#000000;fontSize=12" vertex="1" parent="1">
          <mxGeometry x="200" y="220" width="240" height="80" as="geometry"/>
        </mxCell>
        <mxCell id="statsList" value="StatsList (Tabela paginada)\nUsa listStats(Page)" style="shape=rectangle;rounded=1;fillColor=#ffffff;strokeColor=#000000;fontSize=12" vertex="1" parent="1">
          <mxGeometry x="470" y="120" width="260" height="80" as="geometry"/>
        </mxCell>
        <mxCell id="rankingWidget" value="RankingWidget\nAuto-refresh 60s" style="shape=rectangle;rounded=1;fillColor=#ffffff;strokeColor=#000000;fontSize=12" vertex="1" parent="1">
          <mxGeometry x="470" y="220" width="260" height="80" as="geometry"/>
        </mxCell>

        <!-- Backend endpoints (as labels) -->
        <mxCell id="epShorten" value="POST /shorten" style="text;align=center;fontStyle=1;fontSize=12" vertex="1" parent="1">
          <mxGeometry x="780" y="230" width="140" height="30" as="geometry"/>
        </mxCell>
        <mxCell id="epRanking" value="GET /ranking" style="text;align=center;fontStyle=1;fontSize=12" vertex="1" parent="1">
          <mxGeometry x="780" y="260" width="140" height="30" as="geometry"/>
        </mxCell>
        <mxCell id="epListStats" value="GET /stats (paginado)" style="text;align=center;fontStyle=1;fontSize=12" vertex="1" parent="1">
          <mxGeometry x="780" y="150" width="160" height="30" as="geometry"/>
        </mxCell>
        <mxCell id="epStatsCode" value="GET /stats/{code}" style="text;align=center;fontStyle=1;fontSize=12" vertex="1" parent="1">
          <mxGeometry x="780" y="180" width="160" height="30" as="geometry"/>
        </mxCell>

        <!-- Data flows -->
        <mxCell id="e1" edge="1" source="user" target="app" style="endArrow=classic;strokeColor=#000000" parent="1">
          <mxGeometry relative="1" as="geometry"/>
        </mxCell>
        <mxCell id="e2" edge="1" source="app" target="queriesPage" value="Navega /consultas" style="endArrow=classic;strokeColor=#000000;fontSize=11" parent="1">
          <mxGeometry relative="1" as="geometry"/>
        </mxCell>
        <mxCell id="e3" edge="1" source="queriesPage" target="rankingWidget" value="Carrega Ranking" style="endArrow=classic;strokeColor=#000000;fontSize=11" parent="1">
          <mxGeometry relative="1" as="geometry"/>
        </mxCell>
        <mxCell id="e4" edge="1" source="rankingWidget" target="epRanking" value="HTTP GET" style="endArrow=classic;strokeColor=#6c8ebf;fontSize=11" parent="1">
          <mxGeometry relative="1" as="geometry"/>
        </mxCell>
        <mxCell id="e5" edge="1" source="queriesPage" target="statsList" value="Carrega Estatísticas" style="endArrow=classic;strokeColor=#000000;fontSize=11" parent="1">
          <mxGeometry relative="1" as="geometry"/>
        </mxCell>
        <mxCell id="e6" edge="1" source="statsList" target="epListStats" value="HTTP GET (page,size,sort)" style="endArrow=classic;strokeColor=#6c8ebf;fontSize=11" parent="1">
          <mxGeometry relative="1" as="geometry"/>
        </mxCell>
        <mxCell id="e7" edge="1" source="shortenForm" target="epShorten" value="HTTP POST {url, code?}" style="endArrow=classic;strokeColor=#6c8ebf;fontSize=11" parent="1">
          <mxGeometry relative="1" as="geometry"/>
        </mxCell>
        <mxCell id="autoRefresh" value="setInterval(60s) → Reexecuta GET /ranking" style="shape=rectangle;rounded=1;fillColor=#dae8fc;strokeColor=#6c8ebf;fontSize=12" vertex="1" parent="1">
          <mxGeometry x="470" y="320" width="260" height="50" as="geometry"/>
        </mxCell>
        <mxCell id="statsDetail" value="StatsDetail\nBusca GET /stats/{code}" style="shape=rectangle;rounded=1;fillColor=#ffffff;strokeColor=#000000;fontSize=12" vertex="1" parent="1">
          <mxGeometry x="200" y="320" width="240" height="60" as="geometry"/>
        </mxCell>
        <mxCell id="e8" edge="1" source="statsDetail" target="epStatsCode" value="HTTP GET" style="endArrow=classic;strokeColor=#6c8ebf;fontSize=11" parent="1">
          <mxGeometry relative="1" as="geometry"/>
        </mxCell>
      </root>
    </mxGraphModel>
  </diagram>
</mxfile>